<svg xmlns="http://www.w3.org/2000/svg" width="36" height="29.25" viewBox="0 0 36 29.25">
  <g id="Group_48" data-name="Group 48" transform="translate(-323 -56)">
    <path id="Icon_awesome-list" data-name="Icon awesome-list" d="M30.375,25.875h4.5A1.125,1.125,0,0,1,36,27v4.5a1.125,1.125,0,0,1-1.125,1.125h-4.5A1.125,1.125,0,0,1,29.25,31.5V27A1.125,1.125,0,0,1,30.375,25.875Zm0-22.5h4.5A1.125,1.125,0,0,1,36,4.5V9a1.125,1.125,0,0,1-1.125,1.125h-4.5A1.125,1.125,0,0,1,29.25,9V4.5A1.125,1.125,0,0,1,30.375,3.375Zm0,11.25h4.5A1.125,1.125,0,0,1,36,15.75v4.5a1.125,1.125,0,0,1-1.125,1.125h-4.5A1.125,1.125,0,0,1,29.25,20.25v-4.5A1.125,1.125,0,0,1,30.375,14.625ZM1.125,27h22.5a1.125,1.125,0,0,1,1.125,1.125v2.25A1.125,1.125,0,0,1,23.625,31.5H1.125A1.125,1.125,0,0,1,0,30.375v-2.25A1.125,1.125,0,0,1,1.125,27Zm0-22.5h22.5A1.125,1.125,0,0,1,24.75,5.625v2.25A1.125,1.125,0,0,1,23.625,9H1.125A1.125,1.125,0,0,1,0,7.875V5.625A1.125,1.125,0,0,1,1.125,4.5Zm0,11.25h22.5a1.125,1.125,0,0,1,1.125,1.125v2.25a1.125,1.125,0,0,1-1.125,1.125H1.125A1.125,1.125,0,0,1,0,19.125v-2.25A1.125,1.125,0,0,1,1.125,15.75Z" transform="translate(323 52.625)"/>
  </g>
</svg>
