<svg xmlns="http://www.w3.org/2000/svg" xmlns:xlink="http://www.w3.org/1999/xlink" width="90" height="90" viewBox="0 0 90 90">
  <defs>
    <filter id="Icon_awesome-minus-circle" x="0" y="0" width="90" height="90" filterUnits="userSpaceOnUse">
      <feOffset dy="3" input="SourceAlpha"/>
      <feGaussianBlur stdDeviation="5" result="blur"/>
      <feFlood flood-opacity="0.161"/>
      <feComposite operator="in" in2="blur"/>
      <feComposite in="SourceGraphic"/>
    </filter>
  </defs>
  <g transform="matrix(1, 0, 0, 1, 0, 0)" filter="url(#Icon_awesome-minus-circle)">
    <path id="Icon_awesome-minus-circle-2" data-name="Icon awesome-minus-circle" d="M30.563.563a30,30,0,1,0,30,30A29.995,29.995,0,0,0,30.563.563ZM14.595,35.4a1.456,1.456,0,0,1-1.452-1.452V27.175a1.456,1.456,0,0,1,1.452-1.452H46.53a1.456,1.456,0,0,1,1.452,1.452V33.95A1.456,1.456,0,0,1,46.53,35.4Z" transform="translate(14.44 11.44)" fill="red"/>
  </g>
</svg>
