<svg xmlns="http://www.w3.org/2000/svg" xmlns:xlink="http://www.w3.org/1999/xlink" width="90" height="90" viewBox="0 0 90 90">
  <defs>
    <filter id="Icon_awesome-plus-circle" x="0" y="0" width="90" height="90" filterUnits="userSpaceOnUse">
      <feOffset dy="3" input="SourceAlpha"/>
      <feGaussianBlur stdDeviation="5" result="blur"/>
      <feFlood flood-opacity="0.161"/>
      <feComposite operator="in" in2="blur"/>
      <feComposite in="SourceGraphic"/>
    </filter>
  </defs>
  <g transform="matrix(1, 0, 0, 1, 0, 0)" filter="url(#Icon_awesome-plus-circle)">
    <path id="Icon_awesome-plus-circle-2" data-name="Icon awesome-plus-circle" d="M30.562.563a30,30,0,1,0,30,30A29.995,29.995,0,0,0,30.562.563ZM47.982,33.95A1.456,1.456,0,0,1,46.53,35.4H35.4V46.53a1.456,1.456,0,0,1-1.452,1.452H27.175a1.456,1.456,0,0,1-1.452-1.452V35.4H14.595a1.456,1.456,0,0,1-1.452-1.452V27.175a1.456,1.456,0,0,1,1.452-1.452H25.724V14.595a1.456,1.456,0,0,1,1.452-1.452H33.95A1.456,1.456,0,0,1,35.4,14.595V25.724H46.53a1.456,1.456,0,0,1,1.452,1.452Z" transform="translate(14.44 11.44)" fill="#1245e3"/>
  </g>
</svg>
